<svg width="24" height="24" viewBox="0 0 24 24" fill="none" xmlns="http://www.w3.org/2000/svg">
<g transform="translate(2, 2)">
<path d="M14.9997 13.125C14.9997 14.5694 14.4927 15.7986 13.4788 16.8125C12.465 17.8263 11.2358 18.3333 9.79134 18.3333C8.3469 18.3333 7.11773 17.8263 6.10384 16.8125C5.08995 15.7986 4.58301 14.5694 4.58301 13.125V5.41663C4.58301 4.37496 4.94759 3.48954 5.67676 2.76038C6.40592 2.03121 7.29134 1.66663 8.33301 1.66663C9.37467 1.66663 10.2601 2.03121 10.9893 2.76038C11.7184 3.48954 12.083 4.37496 12.083 5.41663V12.7083C12.083 13.3472 11.8608 13.8888 11.4163 14.3333C10.9719 14.7777 10.4302 15 9.79134 15C9.15245 15 8.61079 14.7777 8.16634 14.3333C7.7219 13.8888 7.49967 13.3472 7.49967 12.7083V4.99996H9.16634V12.7083C9.16634 12.8888 9.22537 13.0382 9.34342 13.1562C9.46148 13.2743 9.61079 13.3333 9.79134 13.3333C9.9719 13.3333 10.1212 13.2743 10.2393 13.1562C10.3573 13.0382 10.4163 12.8888 10.4163 12.7083V5.41663C10.4025 4.83329 10.1976 4.34024 9.80176 3.93746C9.40592 3.53468 8.91634 3.33329 8.33301 3.33329C7.74967 3.33329 7.25662 3.53468 6.85384 3.93746C6.45106 4.34024 6.24967 4.83329 6.24967 5.41663V13.125C6.23579 14.1111 6.57606 14.9479 7.27051 15.6354C7.96495 16.3229 8.80523 16.6666 9.79134 16.6666C10.7636 16.6666 11.59 16.3229 12.2705 15.6354C12.9511 14.9479 13.3052 14.1111 13.333 13.125V4.99996H14.9997V13.125Z" fill="#44484C"/>
</g>
</svg>
