<svg width="24" height="24" viewBox="0 0 24 24" fill="none" xmlns="http://www.w3.org/2000/svg">
<path d="M14.75 11.5C15.0972 11.5 15.3924 11.3785 15.6354 11.1354C15.8785 10.8924 16 10.5972 16 10.25C16 9.90278 15.8785 9.60764 15.6354 9.36458C15.3924 9.12153 15.0972 9 14.75 9C14.4028 9 14.1076 9.12153 13.8646 9.36458C13.6215 9.60764 13.5 9.90278 13.5 10.25C13.5 10.5972 13.6215 10.8924 13.8646 11.1354C14.1076 11.3785 14.4028 11.5 14.75 11.5ZM9.25 11.5C9.59722 11.5 9.89236 11.3785 10.1354 11.1354C10.3785 10.8924 10.5 10.5972 10.5 10.25C10.5 9.90278 10.3785 9.60764 10.1354 9.36458C9.89236 9.12153 9.59722 9 9.25 9C8.90278 9 8.60764 9.12153 8.36458 9.36458C8.12153 9.60764 8 9.90278 8 10.25C8 10.5972 8.12153 10.8924 8.36458 11.1354C8.60764 11.3785 8.90278 11.5 9.25 11.5ZM14.6146 15.6875C15.3993 15.1458 15.9375 14.4167 16.2292 13.5H14.5833C14.3067 13.9625 13.9389 14.3281 13.48 14.5969C13.0211 14.8656 12.5278 15 12 15C11.4722 15 10.9789 14.8656 10.52 14.5969C10.0611 14.3281 9.69333 13.9625 9.41667 13.5H7.77083C8.0625 14.4167 8.6 15.1458 9.38333 15.6875C10.1667 16.2292 11.0382 16.5 11.9979 16.5C12.9576 16.5 13.8299 16.2292 14.6146 15.6875ZM8.89583 19.375C7.92361 18.9583 7.07292 18.3854 6.34375 17.6562C5.61458 16.9271 5.04167 16.0767 4.625 15.105C4.20833 14.1333 4 13.0951 4 11.9904C4 10.8857 4.20833 9.85069 4.625 8.88542C5.04167 7.92014 5.61458 7.07292 6.34375 6.34375C7.07292 5.61458 7.92333 5.04167 8.895 4.625C9.86667 4.20833 10.9049 4 12.0096 4C13.1143 4 14.1493 4.20833 15.1146 4.625C16.0799 5.04167 16.9271 5.61458 17.6562 6.34375C18.3854 7.07292 18.9583 7.92167 19.375 8.89C19.7917 9.85847 20 10.8932 20 11.9942C20 13.0953 19.7917 14.1319 19.375 15.1042C18.9583 16.0764 18.3854 16.9271 17.6562 17.6562C16.9271 18.3854 16.0783 18.9583 15.11 19.375C14.1415 19.7917 13.1068 20 12.0058 20C10.9047 20 9.86806 19.7917 8.89583 19.375ZM16.6042 16.6042C17.8681 15.3403 18.5 13.8056 18.5 12C18.5 10.1944 17.8681 8.65972 16.6042 7.39583C15.3403 6.13194 13.8056 5.5 12 5.5C10.1944 5.5 8.65972 6.13194 7.39583 7.39583C6.13194 8.65972 5.5 10.1944 5.5 12C5.5 13.8056 6.13194 15.3403 7.39583 16.6042C8.65972 17.8681 10.1944 18.5 12 18.5C13.8056 18.5 15.3403 17.8681 16.6042 16.6042Z" fill="#44484C"/>
</svg>
