<svg width="24" height="24" viewBox="0 0 24 24" fill="none" xmlns="http://www.w3.org/2000/svg">
<path d="M20.896 6.43952L12.2978 1.47509C12.1178 1.375 11.8779 1.375 11.6979 1.47509L3.09974 6.43952C2.91978 6.55963 2.7998 6.75981 2.7998 6.95999V16.9089C2.7998 17.1291 2.91978 17.3292 3.09974 17.4293L11.6979 22.3938C11.7979 22.4538 11.8979 22.4738 11.9979 22.4738C12.0978 22.4738 12.1978 22.4538 12.2978 22.3938L20.896 17.4293C21.076 17.3292 21.1959 17.1291 21.1959 16.9089V6.95999C21.1959 6.75981 21.076 6.55963 20.896 6.43952ZM11.8179 14.8871L10.6781 14.2265V12.7251L6.599 10.363V14.9071L10.6581 17.2692V16.4084V15.8679L10.8581 15.988L11.8179 16.5485V18.2701C11.8179 18.3101 11.8179 18.3702 11.7979 18.4102C11.7979 18.4302 11.7979 18.4302 11.7779 18.4502C11.7579 18.4903 11.7579 18.5103 11.7379 18.5503C11.7379 18.5704 11.7179 18.5704 11.7179 18.5904C11.6979 18.6304 11.6779 18.6704 11.6379 18.6905C11.598 18.7305 11.578 18.7505 11.538 18.7705C11.518 18.7705 11.518 18.7906 11.498 18.7906C11.478 18.7906 11.438 18.8106 11.398 18.8106C11.378 18.8106 11.378 18.8106 11.358 18.8306C11.318 18.8506 11.278 18.8506 11.218 18.8506C11.178 18.8506 11.1181 18.8506 11.0781 18.8306C11.0581 18.8306 11.0581 18.8306 11.0381 18.8106C10.9981 18.7906 10.9781 18.7906 10.9381 18.7705H10.9181L5.71919 15.7278C5.53923 15.6277 5.43925 15.4275 5.43925 15.2274V9.36213C5.43925 9.16195 5.53923 8.96177 5.71919 8.86169C5.89915 8.7616 6.11911 8.7616 6.29907 8.86169L11.498 11.9044C11.6779 12.0045 11.7779 12.2047 11.7779 12.4048V14.8871H11.8179Z" fill="#ffffff"/>
</svg>
