<svg width="24" height="24" viewBox="0 0 24 24" fill="none" xmlns="http://www.w3.org/2000/svg">
<path d="M7.25 20C6.625 20 6.09375 19.7812 5.65625 19.3438C5.21875 18.9062 5 18.375 5 17.75V6.25C5 5.625 5.21875 5.09375 5.65625 4.65625C6.09375 4.21875 6.625 4 7.25 4H16V17H7.25C7.0375 17 6.85938 17.0715 6.71563 17.2144C6.57188 17.3573 6.5 17.5344 6.5 17.7456C6.5 17.9569 6.57188 18.1354 6.71563 18.2812C6.85938 18.4271 7.0375 18.5 7.25 18.5H17.5V5.5H19V20H7.25ZM9.5 15.5H14.5V5.5H9.5V15.5ZM8 15.5V5.5H7.25C7.0375 5.5 6.85938 5.57639 6.71563 5.72917C6.57188 5.88194 6.5 6.05556 6.5 6.25V15.6458C6.61111 15.6042 6.72826 15.5694 6.85146 15.5417C6.97451 15.5139 7.10736 15.5 7.25 15.5H8Z" fill="#ffffff"/>
</svg>
