<svg width="24" height="24" viewBox="0 0 24 24" fill="none" xmlns="http://www.w3.org/2000/svg">
<path d="M15.875 18.6042L11.8958 14.625C11.6181 14.7361 11.316 14.8229 10.9896 14.8854C10.6632 14.9479 10.3333 14.9792 10 14.9792C8.625 14.9792 7.44792 14.4931 6.46875 13.5208C5.48958 12.5486 5 11.375 5 10C5 9.47222 5.06597 8.97222 5.19792 8.5C5.32986 8.02778 5.52778 7.59028 5.79167 7.1875L8.79167 10.1875L10.25 8.72917L7.25 5.72917C7.65278 5.49306 8.08681 5.3125 8.55208 5.1875C9.01736 5.0625 9.5 5 10 5C11.3889 5 12.5694 5.49306 13.5417 6.47917C14.5139 7.46528 15 8.64583 15 10.0208C15 10.3403 14.9688 10.6354 14.9063 10.9063C14.8438 11.1771 14.7569 11.4514 14.6458 11.7292L18.7083 15.7708C18.9028 15.9653 19 16.2049 19 16.4896C19 16.7743 18.9028 17.0139 18.7083 17.2083L17.2917 18.6042C17.0972 18.7986 16.8611 18.8958 16.5833 18.8958C16.3056 18.8958 16.0694 18.7986 15.875 18.6042Z" fill="white"/>
</svg>
