<svg width="24" height="24" viewBox="0 0 24 24" fill="none" xmlns="http://www.w3.org/2000/svg">
<path d="M8.00004 18.5001V9.50012C8.00004 9.08345 8.14587 8.72928 8.43754 8.43762C8.7292 8.14595 9.08337 8.00012 9.50004 8.00012H18.5C18.9167 8.00012 19.2709 8.14595 19.5625 8.43762C19.8542 8.72928 20 9.08345 20 9.50012V16.0001L16 20.0001H9.50004C9.08337 20.0001 8.7292 19.8543 8.43754 19.5626C8.14587 19.271 8.00004 18.9168 8.00004 18.5001ZM4.0417 7.35428C3.97226 6.95151 4.05906 6.57651 4.30212 6.22928C4.54518 5.88206 4.86809 5.67373 5.27087 5.60428L14.125 4.02095C14.5278 3.95151 14.8993 4.03831 15.2396 4.28137C15.5799 4.52442 15.7848 4.84734 15.8542 5.25012L16.0834 6.50012H9.50004C8.6667 6.50012 7.95837 6.79178 7.37504 7.37512C6.7917 7.95845 6.50004 8.66678 6.50004 9.50012V17.3126C6.27781 17.2154 6.08684 17.0696 5.92712 16.8751C5.7674 16.6807 5.6667 16.4585 5.62504 16.2085L4.0417 7.35428ZM18.5 15.0001H15V18.5001L18.5 15.0001Z" fill="#ffffff"/>
</svg>
